# xmcd
#
# Track frame offsets:
#	150
#	14515
#	26352
#	39182
#	50667
#	66667
#	85457
#	99650
#	113915
#	124922
#	144612
#	157840
#
# Disc length: 2304 seconds
#
# Revision: 0
# Processed by: cddbd v1.5.1PL0 Copyright (c) Steve Scherf et al.
# Submitted via: dBpowerAMP V4.0
#
DISCID=a308fe0c
DTITLE=Daniel O'Donnell - Country Collection
DYEAR=1997
DGENRE=Country
TTITLE0=The Shelter Of Your Eyes
TTITLE1=I Know One
TTITLE2=She Goes Walking Through My Mind
TTITLE3=Bye Bye Love
TTITLE4=Blue Eyes Crying In The Rain
TTITLE5=Sweet Memories
TTITLE6=Guilty
TTITLE7=Leaving Is Easy (When Loving Is Hard)
TTITLE8=We Could
TTITLE9=Silver Threads Among The Gold
TTITLE10=Cryin' Time
TTITLE11=The Last Waltz Of The Evening
EXTD=
EXTT0=
EXTT1=
EXTT2=
EXTT3=
EXTT4=
EXTT5=
EXTT6=
EXTT7=
EXTT8=
EXTT9=
EXTT10=
EXTT11=
PLAYORDER=
